<svg width="27" height="24" viewBox="0 0 27 24" fill="none" xmlns="http://www.w3.org/2000/svg">
	<path fill-rule="evenodd" clip-rule="evenodd" d="M24.8136 1.62712H1.62712L1.62712 17.0847H8.66019L7.18804 18.7119H1.62712C0.728486 18.7119 0 17.9834 0 17.0847V1.62712C0 0.728485 0.728486 0 1.62712 0H24.8136C25.7122 0 26.4407 0.728486 26.4407 1.62712V17.0847C26.4407 17.9834 25.7122 18.7119 24.8136 18.7119H19.6594L18.1873 17.0847H24.8136V1.62712ZM11.778 17.2765L11.9516 17.0847L13.4237 15.4576L14.8959 17.0847L15.0694 17.2765L16.368 18.7119L21.1525 24H5.69491L10.4794 18.7119L11.778 17.2765Z" fill="white"/>
</svg>
	