<svg width="142" height="142" viewBox="0 0 142 142" fill="none" xmlns="http://www.w3.org/2000/svg">
<path d="M44.5816 89.4006H64.5544V85.1699H56.9785V54.6696H52.6494L44.3356 62.7374L47.2872 65.7874L50.5341 62.5898C51.8131 61.36 52.2067 60.5729 52.2067 60.5729H52.305C52.305 60.5729 52.2559 61.6551 52.2559 62.7374V85.1699H44.5816V89.4006Z" fill="white"/>
<path d="M81.2439 89.9909C90.5415 89.9909 93.5424 82.0215 93.5424 71.9859C93.5424 61.9995 90.5415 54.0792 81.2439 54.0792C71.9954 54.0792 68.9945 61.9995 68.9945 71.9859C68.9945 82.0215 71.9954 89.9909 81.2439 89.9909ZM81.2439 85.5143C75.5865 85.5143 73.9631 79.5618 73.9631 71.9859C73.9631 64.4592 75.5865 58.5559 81.2439 58.5559C86.9504 58.5559 88.5738 64.4592 88.5738 71.9859C88.5738 79.5618 86.9504 85.5143 81.2439 85.5143Z" fill="white"/>
<path fill-rule="evenodd" clip-rule="evenodd" d="M10.8889 18.7C10.8889 17.1475 12.1475 15.8889 13.7 15.8889H74.1C89.7094 15.8889 105.436 21.86 117.288 33.7123C141.184 57.6086 141.186 96.2852 117.292 120.183C105.438 132.14 89.709 138.111 74.1 138.111C72.5475 138.111 71.2889 136.853 71.2889 135.3C71.2889 133.747 72.5475 132.489 74.1 132.489C88.2892 132.489 102.558 127.061 113.304 116.221L113.312 116.212C135.014 94.5101 135.014 59.3899 113.312 37.6877C102.564 26.94 88.2906 21.5111 74.1 21.5111H13.7C12.1475 21.5111 10.8889 20.2525 10.8889 18.7Z" fill="white"/>
<path fill-rule="evenodd" clip-rule="evenodd" d="M7.84087 17.0271C8.76479 15.7794 10.5252 15.5169 11.7729 16.4409L27.5729 28.1409C28.8206 29.0648 29.0831 30.8252 28.1591 32.0729C27.2352 33.3206 25.4748 33.583 24.2271 32.6591L8.4271 20.9591C7.17942 20.0352 6.91695 18.2748 7.84087 17.0271Z" fill="white"/>
<path fill-rule="evenodd" clip-rule="evenodd" d="M28.1523 5.2179C29.0813 6.46181 28.826 8.2233 27.5821 9.1523L11.7821 20.9523C10.5382 21.8813 8.77671 21.626 7.84772 20.3821C6.91872 19.1382 7.17401 17.3767 8.41792 16.4477L24.2179 4.6477C25.4618 3.71871 27.2233 3.974 28.1523 5.2179Z" fill="white"/>
</svg>
