<svg width="30" height="24" viewBox="0 0 30 24" fill="none" xmlns="http://www.w3.org/2000/svg">
	<path fill-rule="evenodd" clip-rule="evenodd" d="M27.6923 1.84615H1.84615V6.46153H0V1.84615C0 0.826551 0.826551 0 1.84615 0H27.6923C28.7119 0 29.5384 0.826551 29.5384 1.84615V22.1538C29.5384 23.1734 28.7119 24 27.6923 24H17.5385V22.1538H27.6923V1.84615ZM0 9.23764C8.04491 9.47707 14.5229 15.9551 14.7624 24H11.9916C11.7544 17.4847 6.51533 12.2456 0 12.0084V9.23764ZM0 14.3934C5.01053 15.0182 8.9818 18.9895 9.6066 24H6.80821C6.22457 20.5211 3.47885 17.7754 0 17.1918V14.3934ZM0 20.3077C2.0392 20.3077 3.69231 21.9608 3.69231 24H0V20.3077Z" fill="white"/>
</svg>
	