<svg width="142" height="142" viewBox="0 0 142 142" fill="none" xmlns="http://www.w3.org/2000/svg">
<path fill-rule="evenodd" clip-rule="evenodd" d="M18.7 26.8391C13.5023 26.8391 9.23909 31.1023 9.23909 36.3V84.2C9.23909 89.3977 13.5023 93.6609 18.7 93.6609H99.0391V107.441L109.249 96.4623L111.808 93.7609H123.5C128.698 93.7609 132.961 89.4977 132.961 84.3V36.4C132.961 31.2023 128.698 26.9391 123.5 26.9391V26.8391H18.7ZM4.16089 36.3C4.16089 28.2977 10.6977 21.7609 18.7 21.7609H123.5V21.8609C131.502 21.8609 138.039 28.3977 138.039 36.4V84.3C138.039 92.3023 131.502 98.8391 123.5 98.8391H113.992L112.959 99.9291L112.943 99.9462L93.9609 120.359V98.7391H18.7C10.6977 98.7391 4.16089 92.2023 4.16089 84.2V36.3Z" fill="white"/>
<path fill-rule="evenodd" clip-rule="evenodd" d="M18.4609 64.9C18.4609 63.4977 19.5977 62.3609 21 62.3609H56.4C57.8023 62.3609 58.9391 63.4977 58.9391 64.9C58.9391 66.3023 57.8023 67.4391 56.4 67.4391H21C19.5977 67.4391 18.4609 66.3023 18.4609 64.9Z" fill="white"/>
<path fill-rule="evenodd" clip-rule="evenodd" d="M89.6609 64.9C89.6609 63.4977 90.7977 62.3609 92.2 62.3609H120.7C122.102 62.3609 123.239 63.4977 123.239 64.9C123.239 66.3023 122.102 67.4391 120.7 67.4391H92.2C90.7977 67.4391 89.6609 66.3023 89.6609 64.9Z" fill="white"/>
<path fill-rule="evenodd" clip-rule="evenodd" d="M65.1609 64.9C65.1609 63.4977 66.2977 62.3609 67.7 62.3609H80.3C81.7023 62.3609 82.8391 63.4977 82.8391 64.9C82.8391 66.3023 81.7023 67.4391 80.3 67.4391H67.7C66.2977 67.4391 65.1609 66.3023 65.1609 64.9Z" fill="white"/>
<path fill-rule="evenodd" clip-rule="evenodd" d="M82.7609 78.6C82.7609 77.1977 83.8977 76.0609 85.3 76.0609H120.7C122.102 76.0609 123.239 77.1977 123.239 78.6C123.239 80.0023 122.102 81.1391 120.7 81.1391H85.3C83.8977 81.1391 82.7609 80.0023 82.7609 78.6Z" fill="white"/>
<path fill-rule="evenodd" clip-rule="evenodd" d="M42.0609 78.6C42.0609 77.1977 43.1977 76.0609 44.6 76.0609H73.1C74.5023 76.0609 75.6391 77.1977 75.6391 78.6C75.6391 80.0023 74.5023 81.1391 73.1 81.1391H44.6C43.1977 81.1391 42.0609 80.0023 42.0609 78.6Z" fill="white"/>
<path fill-rule="evenodd" clip-rule="evenodd" d="M18.5609 78.6C18.5609 77.1977 19.6977 76.0609 21.1 76.0609H33.7C35.1023 76.0609 36.2391 77.1977 36.2391 78.6C36.2391 80.0023 35.1023 81.1391 33.7 81.1391H21.1C19.6977 81.1391 18.5609 80.0023 18.5609 78.6Z" fill="white"/>
</svg>
