<svg width="66" height="13" viewBox="0 0 66 13" fill="none" xmlns="http://www.w3.org/2000/svg">
    <path d="M14.561 2.04616H18.049V8.5026H23.4543V10.8776H14.561V2.04616Z" fill="white"/>
    <path d="M24.814 2.04635H28.302V10.8778H24.814V2.04635Z" fill="white"/>
    <path d="M29.291 2.04616H33.1256L35.0673 7.71124H35.0917L37.0339 2.04616H40.868L36.9103 10.8776H33.2492L29.291 2.04616Z" fill="white"/>
    <path d="M41.5723 2.04616H50.9602V4.19831H45.0603V5.38558H50.5399V7.53773H45.0603V8.72548H50.9602V10.8776H41.5723V2.04616Z" fill="white"/>
    <path d="M55.7378 4.13955C55.5782 4.01014 55.3625 3.93968 55.1387 3.94255C54.9273 3.94687 54.7322 4.01877 54.5932 4.14195C54.4245 4.28047 54.331 4.47364 54.3368 4.67256C54.3425 4.86285 54.436 5.0354 54.5947 5.15331C55.0376 5.52814 55.282 5.99836 55.282 6.47815C55.282 6.98336 55.0313 7.46507 54.5765 7.83367C54.4058 7.97171 54.3114 8.16584 54.3171 8.36619C54.3229 8.55696 54.4168 8.73048 54.5793 8.85127C54.725 8.96822 54.923 9.03964 55.1004 9.04395C55.1401 9.05306 55.1823 9.05737 55.2255 9.05737C55.387 9.05737 55.5586 8.99362 55.6961 8.88242C56.4904 8.25643 56.9275 7.40803 56.9275 6.49397C56.9275 5.59716 56.5048 4.76123 55.7378 4.13955Z" fill="white"/>
    <path d="M58.8541 2.30076C58.5497 2.05439 58.0153 2.05439 57.7123 2.30076C57.5498 2.4321 57.4602 2.61232 57.4602 2.80836C57.4602 3.00393 57.5494 3.18415 57.7099 3.31405C58.752 4.17347 59.3257 5.30274 59.3257 6.49385C59.3257 7.70078 58.7385 8.84108 57.6725 9.70433C57.5101 9.83615 57.4209 10.0164 57.4209 10.2119C57.4209 10.408 57.5101 10.5877 57.6725 10.7195C57.8245 10.8427 58.0301 10.9151 58.2242 10.9175C58.2487 10.9199 58.2741 10.9213 58.3 10.9213C58.4812 10.9213 58.6686 10.8537 58.8133 10.7363C60.2177 9.61566 60.9909 8.11443 60.9909 6.51015C60.9909 4.9121 60.2321 3.4171 58.8541 2.30076Z" fill="white"/>
    <path d="M61.9703 0.446472L61.9698 0.445993C61.8174 0.322808 61.6146 0.254745 61.3984 0.254745C61.1794 0.254745 60.9795 0.322808 60.817 0.4551C60.6574 0.596978 60.5726 0.784393 60.5769 0.981872C60.5812 1.1736 60.6699 1.34951 60.8266 1.47557C62.4793 2.82965 63.3891 4.61751 63.3891 6.51034C63.3891 8.41804 62.4654 10.2169 60.7887 11.5753C60.6263 11.7071 60.5366 11.8873 60.5366 12.0829C60.5366 12.2785 60.6258 12.4587 60.7883 12.5905C60.9445 12.7171 61.1564 12.7894 61.3692 12.7894C61.5638 12.7894 61.7785 12.7132 61.929 12.5915C63.9446 10.9757 65.0542 8.81587 65.0542 6.51034C65.0542 4.22734 63.959 2.07376 61.9703 0.446472Z" fill="white"/>
    <path d="M10.8891 7.83997C10.4343 7.47185 10.1836 6.99013 10.1836 6.48493C10.1836 6.00513 10.4271 5.53492 10.8633 5.16632C11.0286 5.04266 11.1226 4.86962 11.1283 4.67885C11.1341 4.47993 11.0416 4.28677 10.8772 4.15256C10.7329 4.02554 10.5378 3.95364 10.3269 3.94933C10.1011 3.94741 9.88689 4.01691 9.72728 4.14633C8.96037 4.76753 8.53809 5.60394 8.53809 6.50075C8.53809 7.41481 8.97523 8.26273 9.76802 8.88776C9.90606 8.99992 10.0786 9.06415 10.2401 9.06415C10.2833 9.06415 10.3255 9.05935 10.3437 9.0536C10.5426 9.04593 10.7396 8.97499 10.8815 8.8614C11.0478 8.73773 11.1427 8.56422 11.1485 8.37297C11.1542 8.17261 11.0598 7.97849 10.8891 7.83997Z" fill="white"/>
    <path d="M7.79342 9.71099C6.72741 8.84725 6.14024 7.70743 6.14024 6.5005C6.14024 5.30892 6.71399 4.17964 7.75459 3.32166C7.9166 3.19032 8.00576 3.01058 8.00576 2.81454C8.00576 2.61897 7.91612 2.43875 7.75363 2.30694C7.44975 2.06105 6.91674 2.06057 6.6119 2.30694C5.23385 3.42375 4.47461 4.91827 4.47461 6.5168C4.47461 8.12108 5.24823 9.62183 6.65168 10.7425C6.79739 10.8604 6.98481 10.928 7.16599 10.928C7.19283 10.928 7.21919 10.9265 7.22638 10.9251C7.43441 10.9217 7.64099 10.8494 7.79342 10.7262C7.95591 10.5944 8.04506 10.4141 8.04506 10.2186C8.04506 10.023 7.95591 9.8428 7.79342 9.71099Z" fill="white"/>
    <path d="M4.67756 11.582C3.00043 10.2236 2.07678 8.42475 2.07678 6.51658C2.07678 4.62422 2.987 2.83636 4.63874 1.48276C4.79548 1.35574 4.88463 1.18031 4.88894 0.988585C4.89374 0.790626 4.80602 0.601295 4.63826 0.452226C4.33389 0.205856 3.80041 0.205377 3.49556 0.452705C1.50687 2.08047 0.411621 4.23358 0.411621 6.51658C0.411621 8.8221 1.52125 10.9819 3.5363 12.5977C3.68729 12.7199 3.90203 12.7961 4.09663 12.7961C4.30945 12.7961 4.52131 12.7233 4.67756 12.5972C4.84005 12.4654 4.92921 12.2852 4.92921 12.0896C4.92921 11.8936 4.84005 11.7138 4.67756 11.582Z" fill="white"/>
</svg>
