<svg id="eudx67tt81vk1" xmlns="http://www.w3.org/2000/svg" xmlns:xlink="http://www.w3.org/1999/xlink" viewBox="0 0 141.700000 141.700000" shape-rendering="geometricPrecision" text-rendering="geometricPrecision"><style><![CDATA[#eudx67tt81vk15_tr {animation: eudx67tt81vk15_tr__tr 3000ms linear infinite normal backwards}@keyframes eudx67tt81vk15_tr__tr { 0% {transform: translate(70.900002px,70.899998px) rotate(719.834362deg)} 100% {transform: translate(70.900002px,70.899998px) rotate(1439.829808deg)} }]]></style><g id="eudx67tt81vk2"><g id="eudx67tt81vk3"><g id="eudx67tt81vk4"><circle id="eudx67tt81vk5" r="4" transform="matrix(1 0 0 1 51.70000000000000 70.90000000000001)" fill="rgb(255,255,255)" stroke="none" stroke-width="1"/></g><g id="eudx67tt81vk6"><circle id="eudx67tt81vk7" r="4" transform="matrix(1 0 0 1 70.90000000000001 70.90000000000001)" fill="rgb(255,255,255)" stroke="none" stroke-width="1"/></g><g id="eudx67tt81vk8"><circle id="eudx67tt81vk9" r="4" transform="matrix(1 0 0 1 90 70.90000000000001)" fill="rgb(255,255,255)" stroke="none" stroke-width="1"/></g></g><g id="eudx67tt81vk10"><g id="eudx67tt81vk11"><g id="eudx67tt81vk12"><path id="eudx67tt81vk13" d="M70.900000,119.600000C44,119.600000,22.200000,97.700000,22.200000,70.900000C22.200000,44.100000,44,22.200000,70.900000,22.200000C97.800000,22.200000,119.600000,44.100000,119.600000,70.900000C119.600000,97.700000,97.800000,119.600000,70.900000,119.600000ZM70.900000,26.600000C46.500000,26.600000,26.600000,46.500000,26.600000,70.900000C26.600000,95.300000,46.500000,115.200000,70.900000,115.200000C95.300000,115.200000,115.200000,95.300000,115.200000,70.900000C115.200000,46.500000,95.300000,26.600000,70.900000,26.600000Z" fill="rgb(255,255,255)" stroke="none" stroke-width="1"/></g></g></g><g id="eudx67tt81vk14" opacity="0.5"><g id="eudx67tt81vk15_tr" transform="translate(70.900002,70.899998) rotate(719.834362)"><path id="eudx67tt81vk15" d="M70.900000,138C33.900000,138,3.800000,107.900000,3.800000,70.900000L17.200000,70.900000C17.200000,100.500000,41.300000,124.600000,70.900000,124.600000C100.500000,124.600000,124.600000,100.500000,124.600000,70.900000C124.600000,41.300000,100.500000,17.200000,70.900000,17.200000L70.900000,3.800000C107.900000,3.800000,138,33.900000,138,70.900000C138,107.900000,107.900000,138,70.900000,138Z" transform="translate(-70.900002,-70.899998)" fill="rgb(255,255,255)" stroke="none" stroke-width="1"/></g></g></g></svg>