<svg width="142" height="142" viewBox="0 0 142 142" fill="none" xmlns="http://www.w3.org/2000/svg">
<path fill-rule="evenodd" clip-rule="evenodd" d="M76.7403 14.4184C77.5461 13.7324 78.517 13.5011 79.3 13.5011C80.5538 13.5011 81.6018 14.0985 82.2768 14.8073C82.9116 15.4738 83.4953 16.5438 83.3989 17.8371V55.7515C90.5941 57.0566 95.9989 63.3108 95.9989 70.9C95.9989 78.4892 90.5941 84.7434 83.3989 86.0485V124.1C83.3989 125.36 82.7969 126.386 82.1416 127.042C81.4863 127.697 80.4603 128.299 79.2 128.299C78.4164 128.299 77.4447 128.067 76.6386 127.38L37.2933 98.8988H19.1C10.7543 98.8988 3.70117 91.8458 3.70117 83.5V58.3C3.70117 49.9542 10.7543 42.9011 19.1 42.9011H37.2951L76.7403 14.4184ZM77.8012 20.5569L39.1049 48.4988H19.1C13.8458 48.4988 9.29887 53.0458 9.29887 58.3V83.5C9.29887 88.7542 13.8458 93.3011 19.1 93.3011H39.1067L77.8012 121.311V80.7011H80.6C86.0543 80.7011 90.4012 76.3542 90.4012 70.9C90.4012 65.4458 86.0543 61.0988 80.6 61.0988H77.8012V20.5569Z" fill="white"/>
<path d="M109.1 87.9C108.4 87.9 107.7 87.6 107.2 87.1C106.2 86.1 106.2 84.4 107.2 83.3L135.7 54.8C136.7 53.8 138.4 53.8 139.5 54.8C140.5 55.8 140.5 57.5 139.5 58.6L111 87.1C110.4 87.6 109.8 87.9 109.1 87.9Z" fill="white"/>
<path d="M137.6 87.9C136.9 87.9 136.2 87.6 135.7 87.1L107.2 58.6C106.2 57.6 106.2 55.9 107.2 54.8C108.2 53.8 109.9 53.8 111 54.8L139.5 83.3C140.5 84.3 140.5 86 139.5 87.1C138.9 87.6 138.2 87.9 137.6 87.9Z" fill="white"/>
</svg>
