<svg width="32" height="33" viewBox="0 0 32 33" fill="none" xmlns="http://www.w3.org/2000/svg">
  <path d="M25.5959 2.28125C25.5959 1.17668 26.4913 0.28125 27.5959 0.28125L29.5959 0.28125C30.7005 0.28125 31.5959 1.17668 31.5959 2.28125L31.5959 30.2813C31.5959 31.3858 30.7005 32.2813 29.5959 32.2813L27.5959 32.2813C26.4913 32.2813 25.5959 31.3858 25.5959 30.2812L25.5959 2.28125Z" fill="white"/>
  <path d="M22.9636 14.6593C24.0702 15.4576 24.0702 17.1052 22.9636 17.9034L3.17003 32.1812C1.84725 33.1354 -8.66187e-06 32.1902 -8.31963e-06 30.5592L-2.32776e-06 2.00355C-1.98552e-06 0.372539 1.84726 -0.572666 3.17004 0.381504L22.9636 14.6593Z" fill="white"/>
</svg>
  