<svg width="142" height="142" viewBox="0 0 142 142" fill="none" xmlns="http://www.w3.org/2000/svg">
<path d="M54.8477 89.617H74.8595V85.3781H67.2688V54.8181H62.9312L54.6012 62.9017L57.5586 65.9577L60.8118 62.7539C62.0933 61.5216 62.4876 60.733 62.4876 60.733H62.5862C62.5862 60.733 62.5369 61.8173 62.5369 62.9017V85.3781H54.8477V89.617Z" fill="white"/>
<path d="M91.5816 90.2085C100.897 90.2085 103.904 82.2235 103.904 72.1683C103.904 62.1624 100.897 54.2267 91.5816 54.2267C82.315 54.2267 79.3083 62.1624 79.3083 72.1683C79.3083 82.2235 82.315 90.2085 91.5816 90.2085ZM91.5816 85.7231C85.9132 85.7231 84.2866 79.759 84.2866 72.1683C84.2866 64.6269 85.9132 58.7121 91.5816 58.7121C97.2992 58.7121 98.9258 64.6269 98.9258 72.1683C98.9258 79.759 97.2992 85.7231 91.5816 85.7231Z" fill="white"/>
<path fill-rule="evenodd" clip-rule="evenodd" d="M68.2 21.7166C54.0145 21.7166 39.7409 27.1424 28.8916 37.9916C7.19232 59.691 7.19231 94.9042 28.9873 116.604L28.9916 116.608C39.8426 127.459 54.0171 132.883 68.3 132.883C69.8556 132.883 71.1166 134.144 71.1166 135.7C71.1166 137.256 69.8556 138.517 68.3 138.517C52.5834 138.517 36.9583 132.541 25.0094 120.593C1.00769 96.6922 1.00879 57.9079 24.9084 34.0084C36.8591 22.0576 52.5855 16.0834 68.2 16.0834H128.8C130.356 16.0834 131.617 17.3444 131.617 18.9C131.617 20.4556 130.356 21.7166 128.8 21.7166H68.2Z" fill="white"/>
<path fill-rule="evenodd" clip-rule="evenodd" d="M134.662 17.1214C135.589 18.3706 135.328 20.1348 134.079 21.0618L118.179 32.8618C116.929 33.7888 115.165 33.5277 114.238 32.2786C113.311 31.0294 113.572 29.2653 114.821 28.3382L130.721 16.5382C131.971 15.6112 133.735 15.8723 134.662 17.1214Z" fill="white"/>
<path fill-rule="evenodd" clip-rule="evenodd" d="M114.231 5.43066C115.153 4.17775 116.916 3.90946 118.169 4.83141L134.069 16.5314C135.322 17.4534 135.591 19.2164 134.669 20.4693C133.747 21.7223 131.984 21.9906 130.731 21.0686L114.831 9.3686C113.578 8.44665 113.309 6.68357 114.231 5.43066Z" fill="white"/>
</svg>
