<svg width="80" height="80" viewBox="0 0 80 80" fill="none" xmlns="http://www.w3.org/2000/svg">
  <path d="M39.9999 80C17.9433 80 0 62.0566 0 40C0 17.9433 17.9433 0 39.9999 0C62.0567 0 80 17.9433 80 40C80 62.0566 62.0567 80 39.9999 80ZM39.9999 3.69597C19.9702 3.69597 3.69598 19.9702 3.69598 40C3.69598 60.0298 19.9702 76.304 39.9999 76.304C60.0298 76.304 76.3041 60.0298 76.3041 40C76.3041 19.9702 60.0298 3.69597 39.9999 3.69597Z" fill="white"/>
  <rect x="28" y="24" width="8.13559" height="32.5424" rx="4.0678" fill="white"/>
  <rect x="42.9153" y="24" width="8.13559" height="32.5424" rx="4.0678" fill="white"/>
</svg>
  