<svg width="80" height="80" viewBox="0 0 80 80" fill="none" xmlns="http://www.w3.org/2000/svg">
	<path d="M39.9999 80C17.9433 80 0 62.0566 0 40C0 17.9433 17.9433 0 39.9999 0C62.0567 0 80 17.9433 80 40C80 62.0566 62.0567 80 39.9999 80ZM39.9999 3.69597C19.9702 3.69597 3.69598 19.9702 3.69598 40C3.69598 60.0298 19.9702 76.304 39.9999 76.304C60.0298 76.304 76.3041 60.0298 76.3041 40C76.3041 19.9702 60.0298 3.69597 39.9999 3.69597Z" fill="white"/>
	<path d="M58.6229 39.5671C58.9562 39.7595 58.9562 40.2406 58.6229 40.4331L31.0635 56.3445C30.7302 56.5369 30.3135 56.2964 30.3135 55.9115V24.0887C30.3135 23.7038 30.7302 23.4632 31.0635 23.6557L58.6229 39.5671Z" fill="white" stroke="white" stroke-width="3"/>
</svg>
	