<?xml version="1.0" encoding="utf-8"?>
<!-- Generator: Adobe Illustrator 22.1.0, SVG Export Plug-In . SVG Version: 6.00 Build 0)  -->
<svg version="1.1" id="Capa_1" xmlns="http://www.w3.org/2000/svg" xmlns:xlink="http://www.w3.org/1999/xlink" x="0px" y="0px"
	 viewBox="0 0 141.7 141.7" style="enable-background:new 0 0 141.7 141.7;" xml:space="preserve">
<style type="text/css">
	.st0{fill:#FFFFFF;}
	.st1{opacity:0.5;enable-background:new    ;}
</style>
<g>
	<g>
		<g>
			<g>
				<path class="st0" d="M61,87.8c-0.7,0-1.4-0.3-1.8-0.9c-0.7-1-0.5-2.4,0.5-3.1l22.5-16.7c1-0.7,2.4-0.5,3.1,0.5
					c0.7,1,0.5,2.4-0.5,3.1L62.3,87.4C61.9,87.7,61.5,87.8,61,87.8z"/>
			</g>
			<g>
				<path class="st0" d="M83.5,71.1c-0.5,0-0.9-0.1-1.3-0.4L59.7,54c-1-0.7-1.2-2.1-0.5-3.1c0.7-1,2.1-1.2,3.1-0.5l22.5,16.7
					c1,0.7,1.2,2.1,0.5,3.1C84.9,70.8,84.2,71.1,83.5,71.1z"/>
			</g>
		</g>
		<g>
			<path class="st0" d="M71.2,117c-26.5,0-48.1-21.6-48.1-48.1c0-1.2,1-2.2,2.2-2.2s2.2,1,2.2,2.2c0,24.1,19.6,43.7,43.7,43.7
				c24.1,0,43.7-19.6,43.7-43.7S95.3,25.2,71.2,25.2h-2.5c-1.2,0-2.2-1-2.2-2.2s1-2.2,2.2-2.2h2.5c26.5,0,48.1,21.6,48.1,48.1
				C119.3,95.4,97.7,117,71.2,117z"/>
		</g>
	</g>
	<g>
		<path class="st0" d="M61,87.8c-1.2,0-2.2-1-2.2-2.2V52.2c0-1.2,1-2.2,2.2-2.2s2.2,1,2.2,2.2v33.4C63.2,86.8,62.2,87.8,61,87.8z"/>
	</g>
	<g>
		<g>
			<path class="st0" d="M78.6,34.5c-0.5,0-0.9-0.1-1.3-0.4l-12.6-9.3c-1-0.7-1.2-2.1-0.5-3.1c0.7-1,2.1-1.2,3.1-0.5l12.6,9.3
				c1,0.7,1.2,2.1,0.5,3.1C80,34.2,79.3,34.5,78.6,34.5z"/>
		</g>
		<g>
			<path class="st0" d="M66,25.2c-0.7,0-1.4-0.3-1.8-0.9c-0.7-1-0.5-2.4,0.5-3.1l12.6-9.4c1-0.7,2.4-0.5,3.1,0.5s0.5,2.4-0.5,3.1
				l-12.6,9.4C66.9,25.1,66.5,25.2,66,25.2z"/>
		</g>
	</g>
</g>
<g class="st1">
	<path class="st0" d="M70.8,136.4c-8.7,0-17.6-1.7-26.2-5.3C19.5,120.3,3.2,94.8,4,67.6L17.4,68c-0.6,21.8,12.4,42.2,32.5,50.7
		c27.3,11.5,58.8-1.2,70.4-28.4c11.5-27.1-1.1-58.6-28.2-70.3c-1.5-0.6-2.9-1.1-4.2-1.5l4.2-12.7c1.5,0.5,3.2,1.1,5,1.8l0.2,0.1
		c33.9,14.5,49.8,53.9,35.3,87.9C121.9,121.1,97,136.4,70.8,136.4z"/>
</g>
</svg>
