<svg width="142" height="142" viewBox="0 0 142 142" fill="none" xmlns="http://www.w3.org/2000/svg">
<path fill-rule="evenodd" clip-rule="evenodd" d="M76.7403 14.4184C77.5461 13.7324 78.517 13.5011 79.3 13.5011C80.5538 13.5011 81.6018 14.0985 82.2768 14.8073C82.9116 15.4738 83.4953 16.5438 83.3989 17.8371V55.7515C90.5941 57.0566 95.9989 63.3108 95.9989 70.9C95.9989 78.4892 90.5941 84.7434 83.3989 86.0485V124.1C83.3989 125.36 82.7969 126.386 82.1416 127.042C81.4863 127.697 80.4603 128.299 79.2 128.299C78.4164 128.299 77.4447 128.067 76.6386 127.38L37.2933 98.8988H19.1C10.7543 98.8988 3.70117 91.8458 3.70117 83.5V58.3C3.70117 49.9542 10.7543 42.9011 19.1 42.9011H37.2951L76.7403 14.4184ZM77.8012 20.5569L39.1049 48.4988H19.1C13.8458 48.4988 9.29887 53.0458 9.29887 58.3V83.5C9.29887 88.7542 13.8458 93.3011 19.1 93.3011H39.1067L77.8012 121.311V80.7011H80.6C86.0543 80.7011 90.4012 76.3542 90.4012 70.9C90.4012 65.4458 86.0543 61.0988 80.6 61.0988H77.8012V20.5569Z" fill="white"/>
<path fill-rule="evenodd" clip-rule="evenodd" d="M114.019 34.6297C114.831 33.3144 116.555 32.9064 117.87 33.7185C130.226 41.3465 137.999 55.1647 137.999 70.9C137.999 86.6353 130.226 100.453 117.87 108.082C116.555 108.894 114.831 108.486 114.019 107.17C113.206 105.855 113.614 104.131 114.93 103.318C125.574 96.7465 132.401 84.7647 132.401 70.9C132.401 57.0353 125.574 45.0535 114.93 38.4815C113.614 37.6695 113.206 35.9449 114.019 34.6297Z" fill="white"/>
<path fill-rule="evenodd" clip-rule="evenodd" d="M105.677 47.0391C106.539 45.756 108.278 45.4148 109.561 46.2768C116.901 51.2085 121.199 60.5879 121.199 70.8C121.199 80.9913 116.913 90.4982 109.536 95.34C108.243 96.1881 106.508 95.8279 105.66 94.5356C104.812 93.2433 105.172 91.5081 106.464 90.66C111.886 87.1018 115.601 79.6087 115.601 70.8C115.601 62.0121 111.899 54.5915 106.439 50.9232C105.156 50.0611 104.815 48.3222 105.677 47.0391Z" fill="white"/>
</svg>
