<?xml version="1.0" encoding="utf-8"?>
<!-- Generator: Adobe Illustrator 22.1.0, SVG Export Plug-In . SVG Version: 6.00 Build 0)  -->
<svg version="1.1" id="Capa_1" xmlns="http://www.w3.org/2000/svg" xmlns:xlink="http://www.w3.org/1999/xlink" x="0px" y="0px"
	 viewBox="0 0 141.7 141.7" style="enable-background:new 0 0 141.7 141.7;" xml:space="preserve">
<style type="text/css">
	.st0{fill:#FFFFFF;}
</style>
<g>
	<g>
		<path class="st0" d="M6.7,57.7C5.2,57.7,4,56.5,4,55V14.9C4,9.2,8.7,4.5,14.4,4.5H55c1.5,0,2.7,1.2,2.7,2.7S56.5,9.9,55,9.9H14.4
			c-2.7,0-5,2.3-5,5V55C9.4,56.5,8.2,57.7,6.7,57.7z"/>
	</g>
	<g>
		<path class="st0" d="M55,138.5H14.4c-5.7,0-10.4-4.7-10.4-10.4V87.7C4,86.2,5.2,85,6.7,85s2.7,1.2,2.7,2.7v40.4c0,2.7,2.3,5,5,5
			H55c1.5,0,2.7,1.2,2.7,2.7S56.5,138.5,55,138.5z"/>
	</g>
	<g>
		<path class="st0" d="M127.6,138.5H87.7c-1.5,0-2.7-1.2-2.7-2.7s1.2-2.7,2.7-2.7h39.9c2.7,0,5-2.3,5-5V87.7c0-1.5,1.2-2.7,2.7-2.7
			s2.7,1.2,2.7,2.7v40.4C138,133.8,133.3,138.5,127.6,138.5z"/>
	</g>
	<g>
		<path class="st0" d="M135.3,57.7c-1.5,0-2.7-1.2-2.7-2.7V14.9c0-2.7-2.3-5-5-5H87.7c-1.5,0-2.7-1.2-2.7-2.7s1.2-2.7,2.7-2.7h39.9
			c5.7,0,10.4,4.7,10.4,10.4V55C138,56.5,136.8,57.7,135.3,57.7z"/>
	</g>
</g>
</svg>
