<?xml version="1.0" encoding="utf-8"?>
<!-- Generator: Adobe Illustrator 22.1.0, SVG Export Plug-In . SVG Version: 6.00 Build 0)  -->
<svg version="1.1" id="Capa_1" xmlns="http://www.w3.org/2000/svg" xmlns:xlink="http://www.w3.org/1999/xlink" x="0px" y="0px"
	 viewBox="0 0 141.7 141.7" style="enable-background:new 0 0 141.7 141.7;" xml:space="preserve">
<style type="text/css">
	.st0{fill:#FFFFFF;}
</style>
<g>
	<g>
		<path class="st0" d="M49.5,60.2H6.8C5.2,60.2,4,59,4,57.4s1.3-2.8,2.8-2.8h42.7c2.8,0,5.2-2.3,5.2-5.2V7.3c0-1.6,1.3-2.8,2.8-2.8
			s2.8,1.3,2.8,2.8v42.1C60.3,55.4,55.5,60.2,49.5,60.2z"/>
	</g>
	<g>
		<path class="st0" d="M57.4,138.4c-1.6,0-2.8-1.3-2.8-2.8V93.2c0-2.8-2.3-5.2-5.2-5.2H6.8C5.2,88,4,86.8,4,85.2s1.3-2.8,2.8-2.8
			h42.6c6,0,10.8,4.9,10.8,10.8v42.4C60.2,137.2,59,138.4,57.4,138.4z"/>
	</g>
	<g>
		<path class="st0" d="M85.2,138.5c-1.6,0-2.8-1.3-2.8-2.8V93.3c0-6,4.9-10.8,10.8-10.8h41.9c1.6,0,2.8,1.3,2.8,2.8
			s-1.3,2.8-2.8,2.8H93.2c-2.8,0-5.2,2.3-5.2,5.2v42.4C88,137.3,86.8,138.5,85.2,138.5z"/>
	</g>
	<g>
		<path class="st0" d="M135.2,60.2H93.3c-6,0-10.8-4.9-10.8-10.8V7.3c0-1.6,1.3-2.8,2.8-2.8s2.8,1.3,2.8,2.8v42.1
			c0,2.8,2.3,5.2,5.2,5.2h41.9c1.6,0,2.8,1.3,2.8,2.8S136.8,60.2,135.2,60.2z"/>
	</g>
</g>
</svg>
